<svg height='100px' width='100px'  fill="#000000" xmlns="http://www.w3.org/2000/svg" xmlns:xlink="http://www.w3.org/1999/xlink" version="1.1" x="0px" y="0px" viewBox="0 0 100 100" enable-background="new 0 0 100 100" xml:space="preserve"><g><path d="M79.173,65.395c-2.304-2.082-5.281-3.231-8.383-3.231c-3.529,0-6.909,1.504-9.274,4.117l-2.721,3.006   c-1.161,1.285-2.028,2.763-2.578,4.396l-0.243,0.727l-0.714-0.282C43.13,69.339,33.246,60.267,27.427,48.584l-0.385-0.772   l0.828-0.249c2.175-0.654,4.13-1.894,5.659-3.585l2.718-3.004c2.242-2.478,3.383-5.679,3.214-9.014   c-0.166-3.335-1.623-6.406-4.099-8.645l-4.589-4.148c-2.304-2.085-5.28-3.231-8.382-3.231c-3.529,0-6.91,1.498-9.276,4.113   l-2.719,3.01c-0.347,0.384-0.683,0.806-0.999,1.263l-0.125,0.138c-2.567,2.195-4.751,7.536-3.485,14.077   c5.843,30.428,31.476,53.613,62.339,56.38c4.049,0.369,7.86-0.468,10.749-2.243c1.157-0.669,2.177-1.491,3.053-2.461l2.72-3.008   c4.623-5.113,4.226-13.034-0.886-17.657L79.173,65.395z"></path><path d="M51.708,5c-1.61,0-2.914,1.306-2.914,2.916c0,1.608,1.305,2.913,2.914,2.913c20.427,0,37.046,16.62,37.046,37.047   c0,1.608,1.305,2.913,2.915,2.913c1.609,0,2.913-1.304,2.913-2.913C94.582,24.233,75.349,5,51.708,5z"></path><path d="M74.494,48.345c0,1.61,1.305,2.914,2.914,2.914c1.609,0,2.914-1.305,2.914-2.914c0-16.035-13.047-29.083-29.085-29.083   c-1.609,0-2.913,1.304-2.913,2.912c0,1.61,1.304,2.914,2.913,2.914C64.063,25.088,74.494,35.52,74.494,48.345z"></path></g></svg>