
<svg width="26px" height="27px" viewBox="0 0 26 27" version="1.1" xmlns="http://www.w3.org/2000/svg" xmlns:xlink="http://www.w3.org/1999/xlink">
    <defs></defs>
    <g id="Page-1" stroke="none" stroke-width="1" fill="none" fill-rule="evenodd" opacity="0.5">
        <g id="Mobile_sand" transform="translate(-324.000000, -23.000000)" fill="#CCCCCC" fill-rule="nonzero">
            <g id="noun_Cross_1776308" transform="translate(324.000000, 23.000000)">
                <g id="Group">
                    <path d="M25.6395525,0.461705094 C25.2517246,0.0637862264 24.6229715,0.0638371698 24.2351634,0.461705094 L12.9999861,11.9889221 L1.76483956,0.461756038 C1.3770166,0.0638371698 0.748278375,0.0638371698 0.360450458,0.461756038 C-0.0273724931,0.859623962 -0.0273675278,1.50472019 0.360455424,1.90263906 L11.5955871,13.4298 L0.360485215,24.9569151 C-0.0273228403,25.354834 -0.0273377361,25.9999302 0.36048025,26.3978491 C0.748308167,26.795717 1.37706626,26.795717 1.76487431,26.3978491 L12.9999861,14.870683 L24.2351237,26.3978491 C24.6229516,26.7957679 25.2516948,26.7957679 25.6395178,26.3978491 C26.0273457,25.9999811 26.0273407,25.3548849 25.6395178,24.956966 L14.4043752,13.4298 L25.6395525,1.90258811 C26.0273606,1.50472019 26.0273755,0.859623962 25.6395525,0.461705094 Z" id="Shape"></path>
                </g>
            </g>
        </g>
    </g>
</svg>