<svg height='100px' width='100px'  fill="#07AEEB" xmlns="http://www.w3.org/2000/svg" xmlns:xlink="http://www.w3.org/1999/xlink" version="1.1" x="0px" y="0px" viewBox="0 0 48 48" enable-background="new 0 0 48 48" xml:space="preserve"><g><g><polyline fill="none" stroke="#07AEEB" stroke-width="2" stroke-linecap="round" stroke-linejoin="round" stroke-miterlimit="10" points="    47,20.9 47,47 1,47 1,20.9   "></polyline><polyline fill="none" stroke="#07AEEB" stroke-width="2" stroke-linecap="round" stroke-linejoin="round" stroke-miterlimit="10" points="    8.1,25.7 8.1,1 39.9,1 39.9,25.7   "></polyline><polyline fill="none" stroke="#07AEEB" stroke-width="2" stroke-linecap="round" stroke-linejoin="round" stroke-miterlimit="10" points="    1,20.9 24,36.3 47,20.9   "></polyline><line fill="none" stroke="#07AEEB" stroke-width="2" stroke-linecap="round" stroke-linejoin="round" stroke-miterlimit="10" x1="39.9" y1="15.4" x2="47" y2="20.9"></line><line fill="none" stroke="#07AEEB" stroke-width="2" stroke-linecap="round" stroke-linejoin="round" stroke-miterlimit="10" x1="1" y1="20.9" x2="8.1" y2="15.4"></line></g><g><path d="M28.5,22.9c-1.6,0.9-3.3,1.2-5.2,1.2c-4.8,0-8.9-3.5-8.9-9.2c0-6.1,4.2-11.3,10.7-11.3c5.1,0,8.5,3.6,8.5,8.5    c0,4.4-2.5,7-5.2,7c-1.2,0-2.3-0.8-2.2-2.6h-0.1c-1,1.7-2.4,2.6-4.1,2.6c-1.7,0-3.2-1.4-3.2-3.7c0-3.6,2.9-7,7-7    c1.3,0,2.4,0.3,3.1,0.6l-1,5.3c-0.4,2.2-0.1,3.3,0.9,3.3c1.5,0,3.2-2,3.2-5.4C32,8,29.4,5,24.9,5C20.1,5,16,8.8,16,14.7    c0,4.9,3.2,7.9,7.5,7.9c1.7,0,3.2-0.4,4.4-1L28.5,22.9z M26.9,10.2c-0.3-0.1-0.8-0.2-1.5-0.2c-2.6,0-4.7,2.4-4.7,5.3    c0,1.3,0.6,2.2,1.9,2.2c1.7,0,3.3-2.2,3.6-4L26.9,10.2z"></path></g></g></svg>