<svg fill="#000000" xmlns="http://www.w3.org/2000/svg" xmlns:xlink="http://www.w3.org/1999/xlink" version="1.1" x="0px" y="0px" viewBox="0 0 100 100" style="enable-background:new 0 0 100 100;" xml:space="preserve"><g><path d="M50,7.1c23.6,0,42.9,19.2,42.9,42.9S73.6,92.9,50,92.9S7.1,73.6,7.1,50S26.4,7.1,50,7.1 M50,0   C22.4,0,0,22.4,0,50s22.4,50,50,50s50-22.4,50-50S77.6,0,50,0L50,0z"></path><path d="M72.7,46.9L39.2,27.6c-1.1-0.6-2.5-0.6-3.5,0c-1.1,0.6-1.8,1.8-1.8,3.1v38.7c0,1.3,0.7,2.4,1.8,3.1   c0.5,0.3,1.2,0.5,1.8,0.5s1.2-0.2,1.8-0.5l33.5-19.3c1.1-0.6,1.8-1.8,1.8-3.1C74.5,48.7,73.8,47.6,72.7,46.9z"></path></g></svg>